<svg id="Layer_1" data-name="Layer 1" xmlns="http://www.w3.org/2000/svg" viewBox="0 0 600 384.78"><defs><style>.cls-1,.cls-2{stroke:#000;stroke-miterlimit:10;}.cls-2{fill:none;stroke-width:23px;}</style></defs><title>trulikas_vektor</title><path class="cls-1" d="M225,238c1.64,0.15,3.29.44,4.93,0.44,57.82,0,115.63,0,173.45.14,4.37,0,6-1.38,6.91-5.52,2.79-12.29,6.05-24.47,9.23-37.11H462a41.15,41.15,0,0,0-2.9-3.12q-47.58-39.7-95.29-79.25c-2.44-2-6.13-2.92-9.39-3.43-3.7-.58-7.55-0.13-11.64-0.13V89.17c7.9,0,15.52-.14,23.13.12,1.57,0.05,3.26,1.42,4.6,2.53q59.37,49.36,118.6,98.89c4.49,3.77,8.91,5.63,14.82,5.38,10.15-.43,20.32,0,30.48-0.22,3.66-.08,6.06.91,8.31,4q12.87,17.82,26.41,35.15a9.48,9.48,0,0,0,6.51,3.28q79,0.27,157.95.12A26.35,26.35,0,0,0,737,238V452a12.9,12.9,0,0,0-2.42-.46c-25.15,0-50.29-.09-75.44.15-2,0-4.48,1.82-5.83,3.52-18.74,23.43-49,23.28-67.54-.3a9.49,9.49,0,0,0-6.47-3.22c-14.81-.21-29.63.08-44.45,0.06q-54-.06-107.9-0.33a10.18,10.18,0,0,0-9.14,4.42c-13.37,17.16-34.48,21.73-52.48,11.41q-18.87-10.83-22.74-32.89a11.24,11.24,0,0,0-.68,1.28c-0.26.79-.5,1.59-0.71,2.39-4.56,17.68-15.64,29.43-33.29,33.61-17.91,4.25-31.65-3.75-42.62-17.53-0.86-1.07-2.26-2.44-3.41-2.44-12.3,0-24.59.18-36.89,0.33Q225,345,225,238ZM331.67,345c0.14-1.35.29-2.16,0.29-3,0-26-.06-52,0.11-77.95,0-4-1.68-4.61-5.08-4.6q-38,.15-76,0c-3.94,0-5.11,1.18-5.09,5.11,0.15,25.32.06,50.63,0.08,76,0,1.44.25,2.87,0.39,4.45h85.25Zm106.44,0v-85H353.21v85h84.91ZM545.2,259.85v84.89h84.9V259.85H545.2Zm-108,170.38a3.34,3.34,0,0,0,1.08-.71c0.07-1.44.21-3.07,0.21-4.7,0-17.82-.17-35.65.1-53.47,0.07-4.65-1.57-5.46-5.75-5.43-24,.18-48,0.1-72,0.1q-54.72,0-109.44,0c-2.53,0-5.47-.84-5.44,3.6,0.12,19.16,0,38.31.19,57.47,0,1.13,1.82,3,3,3.21,2.48,0.51,5.14.15,7.64,0.15,2.53-26.83,22.53-40.26,37.83-42.22,21.31-2.72,37.32,9.91,48,38.13,0.26-1.52.35-2.16,0.48-2.8,4.11-19.56,21.95-35.24,40.48-35.58,19.65-.36,38,14.19,42.82,33.93M651.53,259.86c0,29.39,0,58.18.15,87,0,1.41,1.94,3.3,3.44,4.11,6.29,3.4,13.16,5.85,19.06,9.79,13,8.69,27.25,4.81,41.34,5.8,0.19-1.94.44-3.22,0.44-4.51,0-32.64,0-65.28.09-97.92,0-4-1.56-4.66-5-4.63-18.15.12-36.3,0-54.45,0C655.11,259.52,653.65,259.71,651.53,259.86Zm64.22,127.65c-10.27,0-20.07.15-29.86-.09a21.57,21.57,0,0,1-8.55-2c-11.56-5.53-22.9-11.52-34.48-17a24.51,24.51,0,0,0-10-2.32c-27.33-.18-54.67-0.1-82-0.1h-5.64v64.08h31.68c0.17-1.37.27-2.36,0.42-3.34,3.4-22.28,21.64-38.8,42.78-38.76,20.49,0,38.68,17,41.73,39.19,0.49,3.56,2.46,3.29,4.82,3.29h42.5c7.57,0,8.26-1,5.73-9H684.4V400.52h31.36v-13ZM523.64,430V260.12H502.43V430h21.22ZM480.83,260.2h-21V430h21M545,238c-5.41-7.19-10.1-13.59-15-19.81-0.73-.92-2.62-1.31-4-1.31q-43.23-.11-86.46,0c-1.38,0-3.72.81-4,1.72-1.86,6.26-3.28,12.65-4.93,19.38H545ZM300,408.86c-13.4-.1-21.75,7.91-21.91,21-0.16,13.42,8.16,21.94,21.54,22,13,0.1,21.42-8.11,21.54-20.91C321.27,417.15,313.45,409,300,408.86Zm319.54,0c-13.22,0-21.53,8.31-21.45,21.48s8.3,21.46,21.5,21.59,21.57-8.19,21.59-21.37C641.16,416.88,633.17,408.87,619.51,408.86ZM406.44,430.24c-0.05-13.43-8.14-21.46-21.55-21.39s-21.35,8.07-21.36,21.58c0,13.27,8.31,21.58,21.55,21.54S406.49,443.57,406.44,430.24Z" transform="translate(-176.36 -88.5)"/><line class="cls-2" y1="11.5" x2="600" y2="11.5"/></svg>