<svg id="Layer_1" data-name="Layer 1" xmlns="http://www.w3.org/2000/svg" viewBox="0 0 363.24 402.99"><defs><style>.cls-1{fill:#fff;}</style></defs><title>car-sharing</title><path d="M572.73,221.41c0.46,9.92-.48,18.75-8,25.34-5.36,4.68-11.71,5.84-18.58,5.89-8.29.05-15.4-2.3-20.8-8.86-5.25-6.38-5.49-14-5.17-22.05h-78.2c0.43,9.87-.71,19.14-9,25.76-5.72,4.55-12.38,5.35-19.35,5.1-16-.59-22.17-8.13-24.81-31.19-2.94,0-6,.1-9.08,0-5.79-.23-8.53-2.93-8.55-8.77-0.08-19.16,0-38.32,0-57.48,0-4.14,1.75-7,5.53-8.63q0.69-.3,1.36-0.63c6.54-3.25,14.69-5.09,19.16-10.17s5.3-13.41,7.67-20.32c2.7-7.86,5.26-15.78,8-23.61,3.62-10.2,11.49-15.92,22.34-16q46-.13,92,0c10.48,0,18.44,5.81,21.95,15.78q6.87,19.53,13.29,39.21c1.26,3.9,3.1,6.58,7.08,8.15,5.25,2.06,10.2,4.88,15.36,7.19,4.33,1.94,6.16,5.09,6.13,9.83-0.11,18.66,0,37.32-.07,56,0,6.68-2.7,9.29-9.43,9.43C578.81,221.46,576.17,221.41,572.73,221.41Zm2.67-15.65c0-15.24,0-30.18,0-45.13a2.77,2.77,0,0,0-.9-2.15c-7.29-3-14.6-8.22-22-8.36-43.61-.79-87.24-0.08-130.86-0.58-11.36-.13-21.6,1.75-31.4,7.37-2.71,1.55-3.76,3.06-3.72,6.11,0.15,11.32,0,22.64,0,34,0,2.92,0,5.83,0,8.77H575.4Zm-28.12-71.85c-4.09-12-8-23.65-12-35.24C533.12,92.4,531.21,91,524.71,91c-29.29,0-58.59.06-87.88,0-5.23,0-8.38,2.05-10,7.08-3.49,10.74-7.23,21.41-10.84,32.11-0.39,1.15-.55,2.38-0.85,3.71H547.27Zm-121,87.9H405c0.1,5.22-2.14,11.44,3.56,13.72a20.49,20.49,0,0,0,14.19-.08C428.34,233.09,426,226.89,426.31,221.8Zm130.78,0h-21c-1.16,8.34-.6,12.83,3.26,13.78,4.53,1.12,10.16,1.53,14.26-.22C559.21,233,556.91,226.82,557.09,221.83Z" transform="translate(-299.36 -75.75)"/><path d="M440.61,402.45c27-14.53,53.72-14.56,80.65,0,0.9-1.59,1.72-3,2.48-4.39a67.59,67.59,0,0,1,76.31-33.77c29.43,7.3,50.43,34,50.85,64.59q0.12,8.75,0,17.5c-0.08,5.66-3.11,8.95-7.92,8.84s-7.17-3.09-7.46-8.77c-0.48-9.79.14-19.81-1.79-29.32-4.22-20.83-23-36.93-43.65-39-23.62-2.4-44.6,9.18-54.08,29.63-1.49,3.22-1.07,5.19,1.44,7.76,14.7,15.07,22.52,33.16,22.79,54.31,0.09,6.92-6.1,11.34-11.12,7.66-2.22-1.63-3.86-5.44-4-8.34-1.34-28.86-20.74-53.12-48.56-60.2-39.44-10-78.5,19.47-79.52,60.15-0.11,4.2-1.06,7.62-5.39,9.1-5.55,1.89-10.06-2.05-9.94-8.81,0.38-20.39,7.67-38.11,21.79-52.68,3.87-4,3.65-6.82,1.36-11.12C413.61,384.3,390,373.58,366,379.08c-22.67,5.21-38.72,25.35-39.55,49.76-0.19,5.66,0,11.33-.07,17-0.1,6.25-2.88,9.47-7.88,9.35-4.73-.11-7.72-3.42-7.42-9.27,0.58-11.43,0-23.21,2.68-34.19,6.26-26.05,29.58-45.89,54.91-48.75,29.93-3.38,55.92,9.71,69.47,35Z" transform="translate(-299.36 -75.75)"/><path d="M481.21,370.2a42.45,42.45,0,0,1-.45-84.9c23.09-.27,42.38,18.74,42.63,42A42.26,42.26,0,0,1,481.21,370.2ZM481,300.82A27.07,27.07,0,1,0,508,327.71,26.89,26.89,0,0,0,481,300.82Z" transform="translate(-299.36 -75.75)"/><path d="M342.86,312a35.75,35.75,0,1,1,35.91,35.86A35.79,35.79,0,0,1,342.86,312ZM399,312a20.45,20.45,0,1,0-20.23,20.3A20.33,20.33,0,0,0,399,312Z" transform="translate(-299.36 -75.75)"/><path d="M619.14,312.28a35.77,35.77,0,1,1-35.05-36.21A36,36,0,0,1,619.14,312.28ZM563,311.82a20.47,20.47,0,0,0,40.95.26A20.47,20.47,0,0,0,563,311.82Z" transform="translate(-299.36 -75.75)"/><path d="M321.09,286.12a10.14,10.14,0,1,1,10-10.16A9.92,9.92,0,0,1,321.09,286.12Z" transform="translate(-299.36 -75.75)"/><path d="M641.17,265.85a10.14,10.14,0,1,1-10.27,9.87A9.88,9.88,0,0,1,641.17,265.85Z" transform="translate(-299.36 -75.75)"/><path d="M341.32,205.53a10.18,10.18,0,0,1-9.89,10.4,10.27,10.27,0,1,1-.28-20.53A10.21,10.21,0,0,1,341.32,205.53Z" transform="translate(-299.36 -75.75)"/><path d="M620.66,205.57a10.19,10.19,0,0,1,10.12-10.17,10.26,10.26,0,1,1-.18,20.52A10.19,10.19,0,0,1,620.66,205.57Z" transform="translate(-299.36 -75.75)"/><path d="M319.9,238.68a10.27,10.27,0,1,1-20.54-.17A10.27,10.27,0,0,1,319.9,238.68Z" transform="translate(-299.36 -75.75)"/><path d="M662.6,238.5a10.26,10.26,0,1,1-20.52.2A10.26,10.26,0,0,1,662.6,238.5Z" transform="translate(-299.36 -75.75)"/><path class="cls-1" d="M426.31,221.8c-0.33,5.09,2,11.29-3.6,13.64a20.49,20.49,0,0,1-14.19.08c-5.7-2.28-3.46-8.5-3.56-13.72h21.35Z" transform="translate(-299.36 -75.75)"/><path class="cls-1" d="M557.09,221.83c-0.17,5,2.13,11.17-3.45,13.56-4.09,1.75-9.72,1.34-14.26.22-3.86-1-4.42-5.45-3.26-13.78h21Z" transform="translate(-299.36 -75.75)"/><path d="M425.35,179.64a10.69,10.69,0,0,1-21.37.64A10.69,10.69,0,1,1,425.35,179.64Z" transform="translate(-299.36 -75.75)"/><path d="M557.08,179.84a10.65,10.65,0,1,1-10.78-10.77A10.67,10.67,0,0,1,557.08,179.84Z" transform="translate(-299.36 -75.75)"/></svg>