<?xml version="1.0" encoding="utf-8"?>
<!-- Generator: Adobe Illustrator 19.2.1, SVG Export Plug-In . SVG Version: 6.00 Build 0)  -->
<svg version="1.1" id="Layer_1" xmlns="http://www.w3.org/2000/svg" xmlns:xlink="http://www.w3.org/1999/xlink" x="0px" y="0px"
	 width="460px" height="126px" viewBox="0 0 460 126" style="enable-background:new 0 0 460 126;" xml:space="preserve">
<style type="text/css">
	.st0{fill:#76C2AF;}
	.st1{opacity:0.2;}
	.st2{fill:#231F20;}
	.st3{fill:#FFFFFF;}
	.st4{fill:none;stroke:#FFFFFF;stroke-width:6;stroke-linecap:round;stroke-linejoin:round;stroke-miterlimit:10;}
	.st5{fill:#0B486B;}
</style>
<g>
	<circle class="st0" cx="64.5" cy="63.1" r="60.5"/>
	<g class="st1">
		<path class="st2" d="M39.9,68.8c6.3,0,11.3,5.1,11.3,11.3s-5.1,11.3-11.3,11.3s-11.3-5.1-11.3-11.3S33.7,68.8,39.9,68.8
			 M39.9,63.1c-9.4,0-17,7.6-17,17s7.6,17,17,17s17-7.6,17-17S49.3,63.1,39.9,63.1L39.9,63.1z"/>
	</g>
	<g class="st1">
		<path class="st2" d="M90.9,68.8c6.3,0,11.3,5.1,11.3,11.3s-5.1,11.3-11.3,11.3s-11.3-5.1-11.3-11.3S84.7,68.8,90.9,68.8
			 M90.9,63.1c-9.4,0-17,7.6-17,17s7.6,17,17,17s17-7.6,17-17S100.3,63.1,90.9,63.1L90.9,63.1z"/>
	</g>
	<g class="st1">
		<path class="st2" d="M65.4,86.7c-1.6,0-2.8-1.3-2.8-2.8V70.1L47,55.1c-0.5-0.5-0.9-1.3-0.9-2s0.3-1.5,0.8-2l9.8-9.8
			c1.1-1.1,2.8-1.1,3.9-0.1l11.5,10.6h5.5c1.6,0,2.8,1.3,2.8,2.8s-1.3,2.8-2.8,2.8H71c-0.7,0-1.4-0.3-1.9-0.8l-10.3-9.5L53,53
			l14.3,13.8c0.6,0.5,0.9,1.3,0.9,2v15C68.2,85.4,67,86.7,65.4,86.7z"/>
	</g>
	<g class="st1">
		<circle class="st2" cx="69.2" cy="33.8" r="6.6"/>
	</g>
	<g>
		<path class="st3" d="M39.9,65c6.3,0,11.3,5.1,11.3,11.3s-5.1,11.3-11.3,11.3s-11.3-5.1-11.3-11.3S33.7,65,39.9,65 M39.9,59.3
			c-9.4,0-17,7.6-17,17s7.6,17,17,17s17-7.6,17-17S49.3,59.3,39.9,59.3L39.9,59.3z"/>
	</g>
	<g>
		<path class="st3" d="M90.9,65c6.3,0,11.3,5.1,11.3,11.3s-5.1,11.3-11.3,11.3s-11.3-5.1-11.3-11.3S84.7,65,90.9,65 M90.9,59.3
			c-9.4,0-17,7.6-17,17s7.6,17,17,17s17-7.6,17-17S100.3,59.3,90.9,59.3L90.9,59.3z"/>
	</g>
	<polyline class="st4" points="65.4,80.1 65.4,65.1 49,49.3 58.8,39.5 71.1,50.8 77.7,50.8 	"/>
	<circle class="st3" cx="69.2" cy="30" r="6.6"/>
</g>
<g>
	<path class="st0" d="M175,54.4c0,8.4-6,13.6-14,13.6c-7.9,0-14-5.2-14-13.6v-22h6.2v21.7c0,4,1.9,8.3,7.8,8.3
		c5.9,0,7.8-4.3,7.8-8.3V32.4h6.2V54.4z"/>
	<path class="st0" d="M182.3,32.4h12.1c6.5,0,12.8,2.6,12.8,9.9c0,5-3.1,8.3-7.9,9.4l9.3,15.4h-7.4l-8-14.7h-4.5v14.7h-6.2V32.4
		H182.3z M193.6,47.4c3.5,0,7.4-0.8,7.4-5c0-3.8-3.7-4.7-6.9-4.7h-5.6v9.8L193.6,47.4L193.6,47.4z"/>
	<path class="st0" d="M213.2,32.4h13.5c5.2,0,10.6,2.4,10.6,8.7c0,3.9-2.4,6.5-6,7.6v0.1c4.4,0.6,7.5,3.5,7.5,8.2
		c0,7.5-6.6,10.1-13.1,10.1h-12.5V32.4z M219.3,46.5h5.5c4.1,0,6.3-1.7,6.3-4.7c0-3.1-2.2-4.3-6.9-4.3h-4.9L219.3,46.5L219.3,46.5z
		 M219.3,61.9h5.5c3.2,0,7.7-0.6,7.7-5.2c0-3.6-2.5-4.9-7.5-4.9h-5.8v10.1H219.3z"/>
	<path class="st0" d="M255.7,32.4h5.3l15,34.7h-7l-3.2-7.9h-15l-3.1,7.9h-6.9L255.7,32.4z M263.6,53.9l-5.3-14.1l-5.4,14.1H263.6z"
		/>
	<path class="st0" d="M279.5,32.4h8.2l16.1,26h0.1v-26h6.2v34.7h-7.8l-16.5-26.8h-0.1v26.8h-6.2L279.5,32.4L279.5,32.4z"/>
	<path class="st0" d="M317.7,32.4h6.2v34.7h-6.2V32.4z"/>
	<path class="st0" d="M349.2,39.7c-1.3-1.7-3.9-3-6.4-3c-2.8,0-6.1,1.4-6.1,4.8c0,3.2,2.7,4.1,6.6,5.3c4.5,1.4,10.1,3.3,10.1,10.1
		c0,7.4-5.8,11.1-12.6,11.1c-4.5,0-9.2-1.7-11.9-4.9l4.4-4.1c1.7,2.4,4.9,3.8,7.6,3.8c2.9,0,6.3-1.4,6.3-5.1c0-3.6-3.6-4.7-8-6
		c-4.2-1.3-8.8-3.4-8.8-9.8c0-7.1,6.4-10.2,12.7-10.2c3.5,0,7.4,1.2,10.1,3.7L349.2,39.7z"/>
	<path class="st0" d="M365.8,37.8h-10.6v-5.4h27.4v5.4H372v29.3h-6.2V37.8z"/>
	<path class="st0" d="M394.6,32.4h5.3l14.9,34.7h-7.1l-3.2-7.9h-15l-3.1,7.9h-6.9L394.6,32.4z M402.4,53.9l-5.3-14.1l-5.4,14.1
		H402.4z"/>
	<path class="st0" d="M436,39.7c-1.3-1.7-3.9-3-6.4-3c-2.8,0-6.1,1.4-6.1,4.8c0,3.2,2.7,4.1,6.6,5.3c4.5,1.4,10.1,3.3,10.1,10.1
		c0,7.4-5.8,11.1-12.6,11.1c-4.5,0-9.2-1.7-11.9-4.9l4.4-4.1c1.7,2.4,4.9,3.8,7.6,3.8c2.9,0,6.3-1.4,6.3-5.1c0-3.6-3.6-4.7-8-6
		c-4.2-1.3-8.8-3.4-8.8-9.8c0-7.1,6.4-10.2,12.7-10.2c3.5,0,7.4,1.2,10.1,3.7L436,39.7z"/>
</g>
<g>
	<path class="st5" d="M152.7,74.1v9.8h0.1c0.7-0.9,2.1-2.2,4.7-2.2c4,0,6.8,3.2,6.8,7.3c0,4.1-2.6,7.4-6.8,7.4
		c-1.9,0-3.8-0.9-4.8-2.5h-0.1V96h-3.3V74.1H152.7z M156.7,84.6c-2.6,0-4.1,2.3-4.1,4.5s1.5,4.5,4.1,4.5c2.7,0,4-2.3,4-4.5
		S159.4,84.6,156.7,84.6z"/>
	<path class="st5" d="M167.6,74.1h3.5V96h-3.5V74.1z"/>
	<path class="st5" d="M182.1,81.7c4.2,0,7.6,2.9,7.6,7.3s-3.4,7.4-7.6,7.4s-7.6-3-7.6-7.4C174.5,84.7,177.9,81.7,182.1,81.7z
		 M182.1,93.6c2.8,0,4-2.3,4-4.5s-1.3-4.5-4-4.5s-4,2.3-4,4.5C178.1,91.2,179.3,93.6,182.1,93.6z"/>
	<path class="st5" d="M207.2,82.1v12.7c0,5-2.4,8.2-7.9,8.2c-2.3,0-5.1-0.8-6.9-2.3l2-2.7c1.3,1.3,3.1,2,4.9,2c3.4,0,4.4-2,4.4-4.8
		v-1h-0.1c-1,1.4-2.6,2.1-4.6,2.1c-4.2,0-6.9-3.3-6.9-7.3s2.6-7.3,6.8-7.3c1.9,0,3.8,0.8,4.8,2.5h0.1v-2.1L207.2,82.1L207.2,82.1z
		 M195.8,89c0,2.2,1.5,4.4,4,4.4c2.6,0,4.1-2.1,4.1-4.4c0-2.4-1.6-4.4-4.1-4.4C197.2,84.6,195.8,86.6,195.8,89z"/>
	<path class="st5" d="M220,94.3L220,94.3c-0.8,1.2-2.4,2.1-4.4,2.1c-2.2,0-5.2-1.1-5.2-4.3c0-4.1,5.2-4.7,9.6-4.7V87
		c0-1.7-1.5-2.6-3.2-2.6c-1.5,0-2.9,0.7-3.8,1.6l-1.8-2.1c1.6-1.5,3.8-2.2,5.9-2.2c5,0,6.2,3.1,6.2,5.9v8.5H220V94.3z M219.9,89.7
		h-0.8c-2.2,0-5.3,0.3-5.3,2.3c0,1.3,1.2,1.7,2.4,1.7c2.4,0,3.7-1.4,3.7-3.6L219.9,89.7L219.9,89.7z"/>
	<path class="st5" d="M234.9,85.9c-0.6-0.8-1.8-1.5-3-1.5c-1.1,0-2.2,0.4-2.2,1.5s1.1,1.4,3,1.8c2.1,0.5,4.5,1.4,4.5,4.1
		c0,3.4-2.8,4.6-5.8,4.6c-2.1,0-4.4-0.8-5.7-2.3L228,92c0.8,1,2.1,1.7,3.6,1.7c1,0,2.2-0.4,2.2-1.7c0-1.2-1.1-1.5-3.2-2
		c-2.1-0.5-4.1-1.3-4.1-3.9c0-3.1,2.8-4.4,5.5-4.4c2,0,4.1,0.7,5.2,2.1L234.9,85.9z"/>
	<path class="st5" d="M256.1,94.3L256.1,94.3c-0.8,1.2-2.4,2.1-4.4,2.1c-2.2,0-5.2-1.1-5.2-4.3c0-4.1,5.2-4.7,9.6-4.7V87
		c0-1.7-1.5-2.6-3.2-2.6c-1.5,0-2.9,0.7-3.8,1.6l-1.8-2.1c1.6-1.5,3.8-2.2,5.9-2.2c5,0,6.2,3.1,6.2,5.9v8.5h-3.2L256.1,94.3
		L256.1,94.3z M256,89.7h-0.8c-2.2,0-5.3,0.3-5.3,2.3c0,1.3,1.2,1.7,2.4,1.7c2.4,0,3.7-1.4,3.7-3.6L256,89.7L256,89.7z"/>
	<path class="st5" d="M266.7,82.1V84h0.1c0.7-1.1,2.3-2.3,4.8-2.3c4,0,6.8,3.2,6.8,7.3c0,4.1-2.6,7.4-6.8,7.4
		c-1.9,0-3.7-0.9-4.6-2.3h-0.1v8.8h-3.5V82.1H266.7z M270.8,84.6c-2.6,0-4.1,2.3-4.1,4.5s1.5,4.5,4.1,4.5c2.7,0,4-2.3,4-4.5
		S273.5,84.6,270.8,84.6z"/>
	<path class="st5" d="M283.5,75.3c1.3,0,2.3,0.9,2.3,2.1s-1,2.1-2.3,2.1s-2.2-1-2.2-2.1S282.2,75.3,283.5,75.3z M281.8,82.1h3.5V96
		h-3.5V82.1z"/>
	<path class="st5" d="M302.8,90.2h-10.6c0.1,2,1.9,3.4,4,3.4c1.7,0,2.9-0.7,3.7-1.8l2.3,1.9c-1.4,1.9-3.3,2.8-6,2.8
		c-4.3,0-7.5-2.8-7.5-7.3s3.2-7.5,7.4-7.5c3.9,0,6.7,2.5,6.7,7.5C302.8,89.6,302.8,89.9,302.8,90.2z M299.3,87.7
		c0-1.8-1-3.4-3.3-3.4c-2.1,0-3.7,1.4-3.9,3.4H299.3z"/>
	<path class="st5" d="M335.2,87.4v8.7h-3.5v-7.7c0-1.7-0.4-3.7-2.6-3.7s-3.1,2-3.1,3.8v7.6h-3.5v-8.4c0-1.7-0.8-3-2.6-3
		c-2.1,0-3,1.9-3,3.8v7.7h-3.5V82.1h3.3v2.2h0.1c0.6-1.4,2.1-2.6,4.3-2.6c2.1,0,3.6,1.1,4.4,2.6c0.9-1.7,2.5-2.6,4.6-2.6
		C333.7,81.7,335.2,84.5,335.2,87.4z"/>
	<path class="st5" d="M341,75.3c1.3,0,2.3,0.9,2.3,2.1s-1,2.1-2.3,2.1s-2.2-1-2.2-2.1S339.7,75.3,341,75.3z M339.3,82.1h3.5V96h-3.5
		V82.1z"/>
	<path class="st5" d="M360.2,90.2h-10.6c0.1,2,1.9,3.4,4,3.4c1.7,0,2.9-0.7,3.7-1.8l2.3,1.9c-1.4,1.9-3.3,2.8-6,2.8
		c-4.3,0-7.5-2.8-7.5-7.3s3.2-7.5,7.4-7.5c3.9,0,6.7,2.5,6.7,7.5C360.3,89.6,360.3,89.9,360.2,90.2z M356.8,87.7
		c0-1.8-1-3.4-3.3-3.4c-2.1,0-3.7,1.4-3.9,3.4H356.8z"/>
	<path class="st5" d="M371.3,85.9c-0.6-0.8-1.8-1.5-3-1.5c-1.1,0-2.2,0.4-2.2,1.5s1.1,1.4,3,1.8c2.1,0.5,4.5,1.4,4.5,4.1
		c0,3.4-2.8,4.6-5.8,4.6c-2.1,0-4.4-0.8-5.7-2.3l2.3-2.1c0.8,1,2.1,1.7,3.6,1.7c1,0,2.2-0.4,2.2-1.7c0-1.2-1.1-1.5-3.2-2
		s-4.1-1.3-4.1-3.9c0-3.1,2.8-4.4,5.5-4.4c2,0,4.1,0.7,5.2,2.1L371.3,85.9z"/>
	<path class="st5" d="M374.5,84.9v-2.8h2.4v-4h3.4v4h3.5v2.8h-3.5v6.5c0,1.2,0.3,2.1,1.8,2.1c0.5,0,1.1-0.1,1.5-0.3l0.1,2.7
		c-0.6,0.2-1.5,0.4-2.3,0.4c-3.7,0-4.5-2.3-4.5-4.9v-6.5C376.9,84.9,374.5,84.9,374.5,84.9z"/>
	<path class="st5" d="M398,101.8c-0.8,0.6-1.8,1.1-2.9,1.1c-1.5,0-3-0.9-3-2.6s1.7-3.4,2.9-4.4l0,0v-1.6h-0.1
		c-0.7,1.2-2.3,2.1-4.3,2.1c-2.2,0-5.2-1.1-5.2-4.3c0-4.1,5.2-4.7,9.6-4.7V87c0-1.7-1.5-2.6-3.2-2.6c-1.5,0-2.9,0.7-3.8,1.6
		l-1.8-2.1c1.6-1.5,3.8-2.2,5.9-2.2c5,0,6.2,3.1,6.2,5.9v8.5h-1.7c-0.9,0.8-2.2,2.3-2.2,3.5c0,0.7,0.6,1.3,1.3,1.3
		c0.6,0,1.2-0.3,1.6-0.6L398,101.8z M395,89.7h-0.8c-2.2,0-5.3,0.3-5.3,2.3c0,1.3,1.2,1.7,2.4,1.7c2.4,0,3.7-1.4,3.7-3.6L395,89.7
		L395,89.7z"/>
</g>
</svg>
