<?xml version="1.0" encoding="utf-8"?>
<!-- Generator: Adobe Illustrator 19.2.1, SVG Export Plug-In . SVG Version: 6.00 Build 0)  -->
<svg version="1.1" id="Layer_1" xmlns="http://www.w3.org/2000/svg" xmlns:xlink="http://www.w3.org/1999/xlink" x="0px" y="0px"
	 width="207.7px" height="23.8px" viewBox="0 0 207.7 23.8" style="enable-background:new 0 0 207.7 23.8;" xml:space="preserve">
<style type="text/css">
	.st0{display:none;}
	.st1{display:inline;fill:#708090;}
	.st2{display:inline;fill:#76C2AF;}
	.st3{display:inline;opacity:0.2;}
	.st4{display:inline;}
	.st5{fill:#FFFFFF;}
	.st6{display:inline;fill:none;stroke:#FFFFFF;stroke-width:2;stroke-linecap:round;stroke-linejoin:round;stroke-miterlimit:10;}
	.st7{display:inline;fill:#FFFFFF;}
	.st8{fill:#FF2D3E;}
</style>
<g class="st0">
	<path class="st1" d="M152.7,61.5v9.8h0.1c0.7-0.9,2.1-2.2,4.7-2.2c4,0,6.8,3.2,6.8,7.3c0,4.1-2.6,7.4-6.8,7.4
		c-1.9,0-3.8-0.9-4.8-2.5h-0.1v2.1h-3.3V61.5H152.7z M156.7,72c-2.6,0-4.1,2.3-4.1,4.5s1.5,4.5,4.1,4.5c2.7,0,4-2.3,4-4.5
		S159.4,72,156.7,72z"/>
	<path class="st1" d="M167.6,61.5h3.5v21.9h-3.5V61.5z"/>
	<path class="st1" d="M182.1,69.1c4.2,0,7.6,2.9,7.6,7.3s-3.4,7.4-7.6,7.4s-7.6-3-7.6-7.4C174.5,72.1,177.9,69.1,182.1,69.1z
		 M182.1,81c2.8,0,4-2.3,4-4.5s-1.3-4.5-4-4.5s-4,2.3-4,4.5C178.1,78.6,179.3,81,182.1,81z"/>
	<path class="st1" d="M207.2,69.5v12.7c0,5-2.4,8.2-7.9,8.2c-2.3,0-5.1-0.8-6.9-2.3l2-2.7c1.3,1.3,3.1,2,4.9,2c3.4,0,4.4-2,4.4-4.8
		v-1h-0.1c-1,1.4-2.6,2.1-4.6,2.1c-4.2,0-6.9-3.3-6.9-7.3s2.6-7.3,6.8-7.3c1.9,0,3.8,0.8,4.8,2.5h0.1v-2.1L207.2,69.5L207.2,69.5z
		 M195.8,76.4c0,2.2,1.5,4.4,4,4.4c2.6,0,4.1-2.1,4.1-4.4c0-2.4-1.6-4.4-4.1-4.4C197.2,72,195.8,74,195.8,76.4z"/>
	<path class="st1" d="M220,81.7L220,81.7c-0.8,1.2-2.4,2.1-4.4,2.1c-2.2,0-5.2-1.1-5.2-4.3c0-4.1,5.2-4.7,9.6-4.7v-0.4
		c0-1.7-1.5-2.6-3.2-2.6c-1.5,0-2.9,0.7-3.8,1.6l-1.8-2.1c1.6-1.5,3.8-2.2,5.9-2.2c5,0,6.2,3.1,6.2,5.9v8.5H220V81.7z M219.9,77.1
		h-0.8c-2.2,0-5.3,0.3-5.3,2.3c0,1.3,1.2,1.7,2.4,1.7c2.4,0,3.7-1.4,3.7-3.6L219.9,77.1L219.9,77.1z"/>
	<path class="st1" d="M234.9,73.3c-0.6-0.8-1.8-1.5-3-1.5c-1.1,0-2.2,0.4-2.2,1.5s1.1,1.4,3,1.8c2.1,0.5,4.5,1.4,4.5,4.1
		c0,3.4-2.8,4.6-5.8,4.6c-2.1,0-4.4-0.8-5.7-2.3l2.3-2.1c0.8,1,2.1,1.7,3.6,1.7c1,0,2.2-0.4,2.2-1.7c0-1.2-1.1-1.5-3.2-2
		c-2.1-0.5-4.1-1.3-4.1-3.9c0-3.1,2.8-4.4,5.5-4.4c2,0,4.1,0.7,5.2,2.1L234.9,73.3z"/>
	<path class="st1" d="M256.1,81.7L256.1,81.7c-0.8,1.2-2.4,2.1-4.4,2.1c-2.2,0-5.2-1.1-5.2-4.3c0-4.1,5.2-4.7,9.6-4.7v-0.4
		c0-1.7-1.5-2.6-3.2-2.6c-1.5,0-2.9,0.7-3.8,1.6l-1.8-2.1c1.6-1.5,3.8-2.2,5.9-2.2c5,0,6.2,3.1,6.2,5.9v8.5h-3.2L256.1,81.7
		L256.1,81.7z M256,77.1h-0.8c-2.2,0-5.3,0.3-5.3,2.3c0,1.3,1.2,1.7,2.4,1.7c2.4,0,3.7-1.4,3.7-3.6L256,77.1L256,77.1z"/>
	<path class="st1" d="M266.7,69.5v1.9h0.1c0.7-1.1,2.3-2.3,4.8-2.3c4,0,6.8,3.2,6.8,7.3c0,4.1-2.6,7.4-6.8,7.4
		c-1.9,0-3.7-0.9-4.6-2.3h-0.1v8.8h-3.5V69.5H266.7z M270.8,72c-2.6,0-4.1,2.3-4.1,4.5s1.5,4.5,4.1,4.5c2.7,0,4-2.3,4-4.5
		S273.5,72,270.8,72z"/>
	<path class="st1" d="M283.5,62.7c1.3,0,2.3,0.9,2.3,2.1s-1,2.1-2.3,2.1s-2.2-1-2.2-2.1S282.2,62.7,283.5,62.7z M281.8,69.5h3.5
		v13.9h-3.5V69.5z"/>
	<path class="st1" d="M302.8,77.6h-10.6c0.1,2,1.9,3.4,4,3.4c1.7,0,2.9-0.7,3.7-1.8l2.3,1.9c-1.4,1.9-3.3,2.8-6,2.8
		c-4.3,0-7.5-2.8-7.5-7.3s3.2-7.5,7.4-7.5c3.9,0,6.7,2.5,6.7,7.5C302.8,77,302.8,77.3,302.8,77.6z M299.3,75.1c0-1.8-1-3.4-3.3-3.4
		c-2.1,0-3.7,1.4-3.9,3.4H299.3z"/>
	<path class="st1" d="M335.2,74.8v8.7h-3.5v-7.7c0-1.7-0.4-3.7-2.6-3.7s-3.1,2-3.1,3.8v7.6h-3.5v-8.4c0-1.7-0.8-3-2.6-3
		c-2.1,0-3,1.9-3,3.8v7.7h-3.5V69.5h3.3v2.2h0.1c0.6-1.4,2.1-2.6,4.3-2.6c2.1,0,3.6,1.1,4.4,2.6c0.9-1.7,2.5-2.6,4.6-2.6
		C333.7,69.1,335.2,71.9,335.2,74.8z"/>
	<path class="st1" d="M341,62.7c1.3,0,2.3,0.9,2.3,2.1s-1,2.1-2.3,2.1s-2.2-1-2.2-2.1S339.7,62.7,341,62.7z M339.3,69.5h3.5v13.9
		h-3.5V69.5z"/>
	<path class="st1" d="M360.2,77.6h-10.6c0.1,2,1.9,3.4,4,3.4c1.7,0,2.9-0.7,3.7-1.8l2.3,1.9c-1.4,1.9-3.3,2.8-6,2.8
		c-4.3,0-7.5-2.8-7.5-7.3s3.2-7.5,7.4-7.5c3.9,0,6.7,2.5,6.7,7.5C360.3,77,360.3,77.3,360.2,77.6z M356.8,75.1c0-1.8-1-3.4-3.3-3.4
		c-2.1,0-3.7,1.4-3.9,3.4H356.8z"/>
	<path class="st1" d="M371.3,73.3c-0.6-0.8-1.8-1.5-3-1.5c-1.1,0-2.2,0.4-2.2,1.5s1.1,1.4,3,1.8c2.1,0.5,4.5,1.4,4.5,4.1
		c0,3.4-2.8,4.6-5.8,4.6c-2.1,0-4.4-0.8-5.7-2.3l2.3-2.1c0.8,1,2.1,1.7,3.6,1.7c1,0,2.2-0.4,2.2-1.7c0-1.2-1.1-1.5-3.2-2
		s-4.1-1.3-4.1-3.9c0-3.1,2.8-4.4,5.5-4.4c2,0,4.1,0.7,5.2,2.1L371.3,73.3z"/>
	<path class="st1" d="M374.5,72.3v-2.8h2.4v-4h3.4v4h3.5v2.8h-3.5v6.5c0,1.2,0.3,2.1,1.8,2.1c0.5,0,1.1-0.1,1.5-0.3l0.1,2.7
		c-0.6,0.2-1.5,0.4-2.3,0.4c-3.7,0-4.5-2.3-4.5-4.9v-6.5C376.9,72.3,374.5,72.3,374.5,72.3z"/>
	<path class="st1" d="M398,89.2c-0.8,0.6-1.8,1.1-2.9,1.1c-1.5,0-3-0.9-3-2.6s1.7-3.4,2.9-4.4l0,0v-1.6h-0.1
		c-0.7,1.2-2.3,2.1-4.3,2.1c-2.2,0-5.2-1.1-5.2-4.3c0-4.1,5.2-4.7,9.6-4.7v-0.4c0-1.7-1.5-2.6-3.2-2.6c-1.5,0-2.9,0.7-3.8,1.6
		l-1.8-2.1c1.6-1.5,3.8-2.2,5.9-2.2c5,0,6.2,3.1,6.2,5.9v8.5h-1.7c-0.9,0.8-2.2,2.3-2.2,3.5c0,0.7,0.6,1.3,1.3,1.3
		c0.6,0,1.2-0.3,1.6-0.6L398,89.2z M395,77.1h-0.8c-2.2,0-5.3,0.3-5.3,2.3c0,1.3,1.2,1.7,2.4,1.7c2.4,0,3.7-1.4,3.7-3.6L395,77.1
		L395,77.1z"/>
</g>
<g class="st0">
	<circle class="st2" cx="29.8" cy="12.2" r="16.4"/>
	<g class="st3">
		<path d="M23.7,13.2c1.8,0,3.2,1.4,3.2,3.2s-1.4,3.2-3.2,3.2c-1.8,0-3.2-1.4-3.2-3.2S21.9,13.2,23.7,13.2 M23.7,11.6
			c-2.7,0-4.8,2.2-4.8,4.8s2.2,4.8,4.8,4.8s4.8-2.2,4.8-4.8S26.3,11.6,23.7,11.6L23.7,11.6z"/>
	</g>
	<g class="st3">
		<path d="M38.1,13c1.8,0,3.2,1.4,3.2,3.2s-1.4,3.2-3.2,3.2s-3.2-1.4-3.2-3.2S36.4,13,38.1,13 M38.1,11.3c-2.7,0-4.8,2.2-4.8,4.8
			s2.2,4.8,4.8,4.8s4.8-2.2,4.8-4.8S40.8,11.3,38.1,11.3L38.1,11.3z"/>
	</g>
	<g class="st3">
		<path d="M30.9,18c-0.5,0-0.8-0.4-0.8-0.8v-3.9l-4.4-4.3c-0.1-0.1-0.3-0.4-0.3-0.6c0-0.2,0.1-0.4,0.2-0.6l2.8-2.8
			c0.3-0.3,0.8-0.3,1.1,0l3.3,3h1.6c0.5,0,0.8,0.4,0.8,0.8c0,0.4-0.4,0.8-0.8,0.8h-1.9c-0.2,0-0.4-0.1-0.5-0.2L29,6.8l-1.6,1.7
			l4.1,3.9c0.2,0.1,0.3,0.4,0.3,0.6v4.3C31.7,17.7,31.3,18,30.9,18z"/>
	</g>
	<g class="st3">
		<circle cx="32" cy="3" r="1.9"/>
	</g>
	<g class="st4">
		<path class="st5" d="M23.7,11.9c1.8,0,3.2,1.4,3.2,3.2c0,1.8-1.4,3.2-3.2,3.2c-1.8,0-3.2-1.4-3.2-3.2
			C20.5,13.3,21.9,11.9,23.7,11.9 M23.7,10.3c-2.7,0-4.8,2.2-4.8,4.8s2.2,4.8,4.8,4.8s4.8-2.2,4.8-4.8S26.3,10.3,23.7,10.3
			L23.7,10.3z"/>
	</g>
	<g class="st4">
		<path class="st5" d="M38.1,11.9c1.8,0,3.2,1.4,3.2,3.2c0,1.8-1.4,3.2-3.2,3.2s-3.2-1.4-3.2-3.2C34.9,13.3,36.4,11.9,38.1,11.9
			 M38.1,10.3c-2.7,0-4.8,2.2-4.8,4.8s2.2,4.8,4.8,4.8s4.8-2.2,4.8-4.8S40.8,10.3,38.1,10.3L38.1,10.3z"/>
	</g>
	<polyline class="st6" points="30.9,16.2 30.9,11.9 26,7.4 28.9,4.7 32.6,7.9 34.6,7.9 	"/>
	<circle class="st7" cx="32" cy="2.5" r="1.9"/>
</g>
<g>
	<path class="st8" d="M2.3,0.7h5.4v14c0,3,1.4,4,3.3,4c2.1,0,3.4-1,3.4-4v-14h5.5v14.8c0,5.3-3.9,8.3-8.9,8.3
		c-5.1,0-8.7-3.1-8.7-8.3V0.7z M11.1,22.8c4.1,0,7.5-2.6,7.5-7.2V1.8h-2.7v12.9c0,3.8-1.8,5.1-4.8,5.1c-2.7,0-4.7-1.3-4.7-5.1V1.8
		H3.7v13.8C3.7,20,6.8,22.8,11.1,22.8z M4.1,10H6v0.2H4.1V10z M4.1,10.8H6V11H4.1V10.8z M4.1,11.5H6v0.2H4.1V11.5z M4.1,12.3H6v0.2
		H4.1V12.3z M4.1,13H6v0.2H4.1V13z M4.1,13.8H6v0.2H4.1V13.8z M4.1,14.5H6v0.2H4.1V14.5z M4.1,15.2H6l0,0.2h-2V15.2z M4.1,16h2
		l0.1,0.2h-2V16z M4.2,16.7h2l0.1,0.2H4.2L4.2,16.7z M4.3,17.5h2.2l0.1,0.2H4.4L4.3,17.5z M4.5,18.2h2.3L7,18.4H4.6L4.5,18.2z
		 M4.9,19h2.6l0.2,0.2H5L4.9,19z M8.6,19.7L9,19.9H5.5l-0.1-0.2H8.6z M16.3,20.5L16,20.6H6.2L6,20.5H16.3z M15.2,21.2l-0.3,0.2H7.2
		L7,21.2H15.2z M13.8,21.9l-0.7,0.2h-4l-0.7-0.2H13.8z M13.8,19.7h3.1l-0.1,0.2h-3.5L13.8,19.7z M14.8,19h2.5l-0.1,0.2h-2.6L14.8,19
		z M15.4,18.2h2.3l-0.1,0.2h-2.3L15.4,18.2z M15.8,17.5H18l-0.1,0.2h-2.2L15.8,17.5z M16,16.7h2.1L18,16.9H16L16,16.7z M16.1,16h2
		l0,0.2h-2L16.1,16z M16.2,15.2h2v0.2h-2V15.2z M16.2,10h2v0.2h-2V10z M16.2,10.8h2V11h-2V10.8z M16.2,11.5h2v0.2h-2V11.5z
		 M16.2,12.3h2v0.2h-2V12.3z M16.2,13h2v0.2h-2V13z M16.2,13.8h2v0.2h-2V13.8z M16.2,14.5h2v0.2h-2V14.5z"/>
	<path class="st8" d="M25.4,0.7h9.3c4.8,0,7.9,2.9,7.9,7.1c0,3.9-2,6.1-5.3,6.9l6,8.3h-6.8l-5.7-8.3v8.3h-5.5V0.7z M29.5,22v-8h2.5
		l5.5,8h3.7l-5.6-7.7V14c3.8-0.4,5.8-2.3,5.8-5.9c0-3.8-2.8-6.3-6.5-6.3h-8V22H29.5z M29.5,4.4h5.6c2.3,0,3.6,1.8,3.6,3.5
		c0,2-1.4,3.6-3.4,3.6h-5.8V4.4z M29.5,2.2h5.2l1.7,0.2h-7V2.2z M29.5,2.9h8.4l0.3,0.2h-8.7V2.9z M29.5,3.7H39l0.2,0.2h-9.7V3.7z
		 M29.5,11.9h10L39.3,12h-9.9V11.9z M29.5,12.6h9.1l-0.3,0.2h-8.7V12.6z M29.5,13.3h7.3l-1,0.2h-6.3V13.3z M35.2,10.4
		c1.2,0,2-1.3,2-2.6c0-1.3-1-2.5-2.2-2.5h-4.2v5H35.2z M32.4,14.1H35v0.2h-2.5L32.4,14.1z M32.9,14.8h2.5l0.2,0.2H33L32.9,14.8z
		 M33.4,15.6h2.5l0.1,0.2h-2.5L33.4,15.6z M33.9,16.3h2.5l0.2,0.2H34L33.9,16.3z M37,17.1l0.1,0.2h-2.6l-0.1-0.2H37z M37.5,17.8
		l0.2,0.2H35l-0.1-0.2H37.5z M38,18.6l0.1,0.2h-2.7l-0.1-0.2H38z M38.6,19.3l0.2,0.2H36l-0.1-0.2H38.6z M39.1,20l0.1,0.2h-2.7
		L36.4,20H39.1z M39.7,4.4l0.1,0.2h-2.6l-0.4-0.2H39.7z M39.6,20.8l0.2,0.2h-2.8L37,20.8H39.6z M37.4,11.1h2.7L40,11.3h-2.9
		L37.4,11.1z M40.2,21.5l0.1,0.2h-2.7l-0.1-0.2H40.2z M40.2,5.2l0.1,0.2h-2.1l-0.3-0.2H40.2z M38.2,10.4h2.3l-0.1,0.2H38L38.2,10.4z
		 M38.5,5.9h2l0.1,0.2h-2L38.5,5.9z M38.6,9.6h2.1l-0.1,0.2h-2.1L38.6,9.6z M38.8,6.7h1.9v0.2h-1.8L38.8,6.7z M38.9,8.9h1.9v0.2h-2
		L38.9,8.9z M39,7.4h1.9v0.2H39V7.4z M39,8.1h1.9v0.2H39V8.1z"/>
	<path class="st8" d="M47.2,0.7h9c3.7,0,6.7,2.8,6.7,6.2c0,2.1-0.9,3.4-2.4,4.6v0.1c2.3,1.6,3.3,3.2,3.3,5.5c0,3.1-2.5,5.9-6.7,5.9
		h-9.9V0.7z M57,22c3.4,0,5.3-2.3,5.3-4.9c0-1.9-1-3.9-3.6-5.3v-0.3c2.1-1.2,2.8-2.8,2.8-4.5c0-2.9-2.4-5.2-5.3-5.2h-7.6V22H57z
		 M51.2,2.3h6l0.7,0.2h-6.7V2.3z M51.2,3h7.7l0,0l0.3,0.2h-8V3z M51.2,3.8h8.6l0.1,0.2h-8.7V3.8z M51.2,4.5h4c2.1,0,3.5,1.3,3.5,3.1
		c0,1.9-1.5,3.1-3.5,3.1h-4V4.5z M51.2,11.1h7.5l-0.3,0.2h-7.2V11.1z M51.2,11.9h7l0.3,0.2h-7.3V11.9z M51.2,12.6h8.1l0.2,0.1h-8.3
		V12.6z M51.2,13.2h4.7c2.1,0,3.5,1.4,3.5,3c0,1.8-1.4,3-3.5,3h-4.7V13.2z M51.2,19.9H61l-0.2,0.2h-9.6V19.9z M51.2,20.7h9l-0.3,0.2
		h-8.7V20.7z M51.2,21.4h7.4L57,21.6h-5.8V21.4z M55.2,9.6c1.3,0,2.2-0.9,2.2-2.1c0-1.2-0.9-2-2.2-2h-2.6v4.1H55.2z M55.9,18.2
		c1.3,0,2.1-0.7,2.1-1.9c0-1.1-0.8-2-2.1-2h-3.3v3.9H55.9z M60.4,4.5l0.1,0.2h-3l-0.4-0.2H60.4z M57.7,10.4h2l-0.2,0.2h-2L57.7,10.4
		z M57.9,19.2h3.5l-0.1,0.1h-3.8L57.9,19.2z M60.1,13.3l0.2,0.2h-2L58,13.3H60.1z M58.2,5.2h2.6l0.1,0.2h-2.5L58.2,5.2z M58.4,9.6
		h1.9l-0.1,0.2h-1.9L58.4,9.6z M58.7,6H61v0.1h-2.2L58.7,6z M58.9,18.5h2.9l-0.1,0.2h-3L58.9,18.5z M58.9,8.9h1.8l-0.1,0.2h-1.8
		L58.9,8.9z M60.8,14.1l0.1,0.2H59l-0.2-0.2H60.8z M59,6.7h2.1v0.2h-2L59,6.7z M59.1,8.2H61l-0.1,0.2H59L59.1,8.2z M59.1,7.4h2v0.2
		h-2V7.4z M59.4,17.7h2.5l-0.1,0.2h-2.6L59.4,17.7z M61.2,14.8l0.1,0.2h-1.9l-0.1-0.2H61.2z M59.6,17H62v0.2h-2.3L59.6,17z
		 M59.6,15.5h2l0.1,0.2h-2L59.6,15.5z M59.7,16.2h2.1v0.2h-2.1V16.2z"/>
	<path class="st8" d="M76.8,0h1l10.9,23.1h-5.9l-1.1-2.3h-8.8l-1.1,2.3h-5.9L76.8,0z M70.8,22L77,8.6h0.5L83.7,22h3L77.2,2l-9.4,20
		H70.8z M70.3,17.6h2l-0.1,0.2h-2L70.3,17.6z M70.6,16.8h2L72.6,17h-2L70.6,16.8z M71,16.1h2l-0.1,0.2h-2L71,16.1z M71.3,15.4h2
		l-0.1,0.2h-2L71.3,15.4z M71.7,14.6h2l-0.1,0.2h-2L71.7,14.6z M72,13.9h2l-0.1,0.2h-2L72,13.9z M72.4,13.1h2l-0.1,0.2h-2L72.4,13.1
		z M72.7,12.4h2l-0.1,0.2h-2L72.7,12.4z M73.1,11.6h2L75,11.8h-2L73.1,11.6z M81.2,19.7l-0.9-1.9h-6.3l-0.8,1.9H81.2z M73.4,10.9h2
		l-0.1,0.2h-2L73.4,10.9z M73.8,10.2h2l-0.1,0.2h-2L73.8,10.2z M74.2,9.4h2L76,9.6h-2L74.2,9.4z M74.2,19.1h6l0.1,0.2h-6.2
		L74.2,19.1z M74.5,8.7h2l-0.1,0.2h-2L74.5,8.7z M74.5,18.3h5.4l0.1,0.2h-5.6L74.5,18.3z M79.8,16.8l-2.5-5.6h-0.1l-2.6,5.6H79.8z
		 M74.9,7.9h4.7l0.1,0.2h-4.9L74.9,7.9z M75.2,7.2h4.1l0.1,0.2h-4.2L75.2,7.2z M75.5,6.4h3.3L79,6.6h-3.5L75.5,6.4z M75.9,5.7h2.6
		l0.1,0.2h-2.8L75.9,5.7z M76.2,4.9h1.9l0.1,0.2h-2.1L76.2,4.9z M76.6,4.2h1.2l0.1,0.2h-1.4L76.6,4.2z M76.9,3.5h0.5l0.1,0.2h-0.7
		L76.9,3.5z M77.2,2.8L77.3,3h-0.1L77.2,2.8z M78,8.7H80L80,8.9h-1.9L78,8.7z M78.4,9.4h1.9l0.1,0.2h-1.9L78.4,9.4z M78.7,10.2h2
		l0.1,0.2h-1.9L78.7,10.2z M79,10.9h2l0.1,0.2h-2L79,10.9z M79.4,11.6h2l0.1,0.2h-2L79.4,11.6z M79.7,12.4h2l0.1,0.2h-2L79.7,12.4z
		 M80,13.1h2l0.1,0.2h-2L80,13.1z M80.4,13.9h2l0.1,0.2h-2L80.4,13.9z M82.8,14.6l0.1,0.2h-2l-0.1-0.2H82.8z M83.1,15.4l0.1,0.2
		h-2.1L81,15.4H83.1z M83.5,16.1l0.1,0.2h-2.1l-0.1-0.2H83.5z M83.8,16.8l0.1,0.2h-2.2l-0.1-0.2H83.8z M84.2,17.6l0.1,0.2h-2.2
		L82,17.6H84.2z"/>
	<path class="st8" d="M92.9,0.7h5.8l8.7,13.2V0.7h5.4v22.3h-5.7L98.4,9.8v13.2h-5.5V0.7z M97,22V6.3h0.6L107.9,22h3.5V1.8h-2.7v15.5
		H108L97.8,1.8h-3.5V22H97z M95.2,2.2h2.3l0.1,0.2h-2.4L95.2,2.2z M95.8,2.9h2.3l0.1,0.2h-2.3L95.8,2.9z M96.2,3.7h2.3l0.1,0.2h-2.3
		L96.2,3.7z M96.8,4.4H99l0.1,0.2h-2.3L96.8,4.4z M97.2,5.2h2.3l0.1,0.2h-2.3L97.2,5.2z M97.8,5.9h2.2l0.1,0.2h-2.3L97.8,5.9z
		 M98.3,6.7h2.3l0.1,0.2h-2.3L98.3,6.7z M98.7,7.4h2.3l0.1,0.2h-2.3L98.7,7.4z M99.3,8.1h2.2l0.1,0.2h-2.3L99.3,8.1z M99.7,8.9h2.2
		l0.1,0.2h-2.3L99.7,8.9z M100.2,9.6h2.2l0.1,0.2h-2.3L100.2,9.6z M100.7,10.4h2.3l0.1,0.2h-2.3L100.7,10.4z M101.2,11.1h2.3
		l0.1,0.2h-2.3L101.2,11.1z M101.7,11.9h2.3l0.1,0.2h-2.3L101.7,11.9z M102.2,12.6h2.2l0.1,0.2h-2.3L102.2,12.6z M102.7,13.3h2.2
		l0.1,0.2h-2.3L102.7,13.3z M103.2,14.1h2.2l0.1,0.2h-2.3L103.2,14.1z M103.6,14.8h2.3l0.1,0.2h-2.3L103.6,14.8z M106.4,15.6
		l0.1,0.2h-2.3l-0.1-0.2H106.4z M106.9,16.3l0.1,0.2h-2.3l-0.1-0.2H106.9z M107.4,17.1l0.1,0.2h-2.3l-0.1-0.2H107.4z M107.9,17.8
		l0.1,0.2h-2.3l-0.1-0.2H107.9z M108.4,18.6l0.2,0.2h-2.4l-0.1-0.2H108.4z M109,19.3l0.2,0.2h-2.5l-0.1-0.2H109z M109.6,20l0.1,0.2
		h-2.5l-0.1-0.2H109.6z M110.1,20.8l0.2,0.2h-2.6l-0.1-0.2H110.1z M110.6,21.5l0.2,0.2h-2.7l-0.1-0.2H110.6z"/>
	<path class="st8" d="M118.2,0.7h5.5v22.3h-5.5V0.7z M122.3,22V1.8h-2.7V22H122.3z M119.9,2.1h2v0.2h-2V2.1z M119.9,2.9h2V3h-2V2.9z
		 M119.9,3.6h2v0.2h-2V3.6z M119.9,4.4h2v0.2h-2V4.4z M119.9,5.1h2v0.2h-2V5.1z M119.9,5.8h2V6h-2V5.8z M119.9,6.6h2v0.2h-2V6.6z
		 M119.9,7.3h2v0.2h-2V7.3z M119.9,8.1h2v0.2h-2V8.1z M119.9,8.8h2V9h-2V8.8z M119.9,9.6h2v0.2h-2V9.6z M119.9,10.3h2v0.2h-2V10.3z
		 M119.9,11h2v0.2h-2V11z M119.9,11.8h2V12h-2V11.8z M119.9,12.5h2v0.2h-2V12.5z"/>
	<path class="st8" d="M134.3,16.5c0,1.3,1,2.3,2.3,2.3c1.4,0,2.2-0.8,2.2-1.9c0-1.7-2.2-2.2-4-2.8c-3.8-1.3-5.8-3.1-5.8-6.9
		c0-3.9,3.4-7.2,7.6-7.2c4.9,0,7.3,3.2,7.6,7.3H139c0-1.3-0.8-2.3-2.3-2.3c-1.2,0-2.3,0.7-2.3,2.2c0,1.7,2,2,3.9,2.5
		c4,1.2,5.8,3.4,5.8,6.9c0,3.9-3.3,7.2-7.5,7.2c-4.9,0-7.6-3.3-7.6-7.3H134.3z M136.6,22.8c3.5,0,6.3-2.8,6.3-6.2
		c0-3.8-2.2-5.1-5.7-6.1c-2.2-0.6-4.1-1.2-4.1-3.3c0-1.9,1.5-3.2,3.5-3.2c2.3,0,3.1,1.4,3.4,2.3h2.8c-0.2-2.2-1.9-5.2-6.2-5.2
		c-3.5,0-6.4,2.8-6.4,6.2c0,2.8,1,4.5,5.1,5.9c2.1,0.8,4.7,1.3,4.7,3.8c0,2-1.7,3-3.5,3c-1.9,0-3.1-1.1-3.4-2.3h-2.9
		C130.3,20.3,133.1,22.8,136.6,22.8z M130.6,6.8h2.2V7h-2.2V6.8z M130.6,7.5h2.2l0,0.2h-2.2V7.5z M130.8,6h2.2l-0.1,0.2h-2.2
		L130.8,6z M130.7,8.3h2.2l0.1,0.2h-2.3L130.7,8.3z M130.9,9.1h2.5l0,0l0.2,0.2h-2.6L130.9,9.1z M130.9,5.3h2.3l-0.1,0.2h-2.2
		L130.9,5.3z M131.3,4.5h2.6l-0.3,0.2h-2.4L131.3,4.5z M131.2,9.9h3l0.3,0.2h-3.2L131.2,9.9z M131.8,3.8h3.3l-0.4,0.2h-3L131.8,3.8z
		 M131.8,10.6h4.3l0.7,0.2H132L131.8,10.6z M132.5,3h4.1v0.2h-4.3L132.5,3z M132.7,11.3h5.8l0.6,0.2h-6L132.7,11.3z M133.6,2.2h3
		v0.2h-3.3L133.6,2.2z M140.1,12.1l0.2,0.2h-5.9l-0.3-0.2H140.1z M135.8,1.5h0.8v0.2h-1.7L135.8,1.5z M141.1,12.9l0.2,0.2h-5.1
		l-0.6-0.2H141.1z M136.6,20.5h4.2l-0.2,0.2h-4.1V20.5z M136.6,21.2h3.3l-0.3,0.2h-3.1V21.2z M136.6,22h1.9l-0.7,0.2h-1.2V22z
		 M141.8,13.6l0.1,0.2h-3.6l-0.4-0.2H141.8z M138.9,19.7h2.6l-0.1,0.1l0,0.1h-2.9L138.9,19.7z M142.1,14.4l0.1,0.2h-2.7l-0.2-0.2
		H142.1z M139.7,19h2.2l-0.1,0.2h-2.3L139.7,19z M139.9,15.2h2.5l0.1,0.2H140L139.9,15.2z M140.2,18.2h2l-0.1,0.2h-2.1L140.2,18.2z
		 M140.3,15.9h2.2v0.2h-2.2L140.3,15.9z M140.4,17.4h2l0,0.2h-2L140.4,17.4z M140.4,16.7h2.1l0,0.2h-2V16.7z"/>
	<path class="st8" d="M153.3,5.6h-5V0.7h15.5v4.8h-5.1v17.5h-5.5V5.6z M157.4,22V4.5h5.1V1.8h-12.8v2.8h5V22H157.4z M150,2.3h12v0.2
		h-12V2.3z M150,3.1h12v0.2h-12V3.1z M150,3.8h12V4h-12V3.8z"/>
	<path class="st8" d="M174.5,0h1l10.9,23.1h-5.9l-1.1-2.3h-8.8l-1.1,2.3h-5.9L174.5,0z M168.5,22l6.2-13.5h0.5l6.2,13.5h3L175,2
		l-9.4,20H168.5z M168.1,17.6h2l-0.1,0.2h-2L168.1,17.6z M168.4,16.8h2l-0.1,0.2h-2L168.4,16.8z M168.8,16.1h2l-0.1,0.2h-2
		L168.8,16.1z M169.1,15.4h2l-0.1,0.2h-2L169.1,15.4z M169.5,14.6h2l-0.1,0.2h-2L169.5,14.6z M169.8,13.9h2l-0.1,0.2h-2L169.8,13.9z
		 M170.1,13.1h2l-0.1,0.2h-2L170.1,13.1z M170.5,12.4h2l-0.1,0.2h-2L170.5,12.4z M170.8,11.6h2l-0.1,0.2h-2L170.8,11.6z M179,19.7
		l-0.9-1.9h-6.3l-0.8,1.9H179z M171.2,10.9h2l-0.1,0.2h-2L171.2,10.9z M171.5,10.2h2l-0.1,0.2h-2L171.5,10.2z M171.9,9.4h2l-0.1,0.2
		h-2L171.9,9.4z M171.9,19.1h6l0.1,0.2h-6.2L171.9,19.1z M172.3,8.7h2l-0.1,0.2h-2L172.3,8.7z M172.3,18.3h5.4l0.1,0.2h-5.6
		L172.3,18.3z M177.5,16.8l-2.5-5.6h-0.1l-2.6,5.6H177.5z M172.6,7.9h4.7l0.1,0.2h-4.9L172.6,7.9z M173,7.2h4.1l0.1,0.2h-4.2
		L173,7.2z M173.3,6.4h3.3l0.1,0.2h-3.5L173.3,6.4z M173.7,5.7h2.6l0.1,0.2h-2.8L173.7,5.7z M174,4.9h1.9l0.1,0.2h-2.1L174,4.9z
		 M174.4,4.2h1.2l0.1,0.2h-1.4L174.4,4.2z M174.7,3.5h0.5l0.1,0.2h-0.7L174.7,3.5z M175,2.8l0.1,0.1h-0.1L175,2.8z M175.8,8.7h1.9
		l0.1,0.2h-1.9L175.8,8.7z M176.1,9.4h1.9l0.1,0.2h-1.9L176.1,9.4z M176.5,10.2h2l0.1,0.2h-1.9L176.5,10.2z M176.8,10.9h2l0.1,0.2
		h-2L176.8,10.9z M177.1,11.6h2l0.1,0.2h-2L177.1,11.6z M177.5,12.4h2l0.1,0.2h-2L177.5,12.4z M177.8,13.1h2l0.1,0.2h-2L177.8,13.1z
		 M178.1,13.9h2l0.1,0.2h-2L178.1,13.9z M180.5,14.6l0.1,0.2h-2l-0.1-0.2H180.5z M180.9,15.4l0.1,0.2h-2.1l-0.1-0.2H180.9z
		 M181.3,16.1l0.1,0.2h-2.1l-0.1-0.2H181.3z M181.6,16.8l0.1,0.2h-2.2l-0.1-0.2H181.6z M182,17.6l0.1,0.2h-2.2l-0.1-0.2H182z"/>
	<path class="st8" d="M195.1,16.5c0,1.3,1,2.3,2.3,2.3c1.4,0,2.2-0.8,2.2-1.9c0-1.7-2.2-2.2-4-2.8c-3.8-1.3-5.8-3.1-5.8-6.9
		c0-3.9,3.4-7.2,7.6-7.2c4.9,0,7.3,3.2,7.6,7.3h-5.1c0-1.3-0.8-2.3-2.3-2.3c-1.2,0-2.3,0.7-2.3,2.2c0,1.7,2,2,3.9,2.5
		c4,1.2,5.8,3.4,5.8,6.9c0,3.9-3.3,7.2-7.5,7.2c-4.9,0-7.6-3.3-7.6-7.3H195.1z M197.4,22.8c3.5,0,6.3-2.8,6.3-6.2
		c0-3.8-2.2-5.1-5.7-6.1c-2.2-0.6-4.1-1.2-4.1-3.3c0-1.9,1.5-3.2,3.5-3.2c2.3,0,3.1,1.4,3.4,2.3h2.8c-0.2-2.2-1.9-5.2-6.2-5.2
		c-3.5,0-6.4,2.8-6.4,6.2c0,2.8,1,4.5,5.1,5.9c2.1,0.8,4.7,1.3,4.7,3.8c0,2-1.7,3-3.5,3c-1.9,0-3.1-1.1-3.4-2.3h-2.9
		C191.2,20.3,193.9,22.8,197.4,22.8z M191.4,6.8h2.2V7h-2.2V6.8z M191.4,7.5h2.2l0,0.2h-2.2V7.5z M191.6,6h2.2l-0.1,0.2h-2.2
		L191.6,6z M191.5,8.3h2.2l0.1,0.2h-2.3L191.5,8.3z M191.7,9.1h2.5l0,0l0.2,0.2h-2.6L191.7,9.1z M191.8,5.3h2.3l-0.1,0.2h-2.2
		L191.8,5.3z M192.2,4.5h2.6l-0.3,0.2H192L192.2,4.5z M192.1,9.9h3l0.3,0.2h-3.2L192.1,9.9z M192.6,3.8h3.3l-0.4,0.2h-3L192.6,3.8z
		 M192.7,10.6h4.3l0.7,0.2h-4.8L192.7,10.6z M193.3,3h4.1v0.2h-4.3L193.3,3z M193.5,11.3h5.8l0.6,0.2h-6L193.5,11.3z M194.5,2.2h3
		v0.2h-3.3L194.5,2.2z M201,12.1l0.2,0.2h-5.9l-0.3-0.2H201z M196.7,1.5h0.8v0.2h-1.7L196.7,1.5z M202,12.9l0.2,0.2h-5.1l-0.6-0.2
		H202z M197.4,20.5h4.2l-0.2,0.2h-4.1V20.5z M197.4,21.2h3.3l-0.3,0.2h-3.1V21.2z M197.4,22h1.9l-0.7,0.2h-1.2V22z M202.6,13.6
		l0.1,0.2h-3.6l-0.4-0.2H202.6z M199.7,19.7h2.6l-0.1,0.1l0,0.1h-2.9L199.7,19.7z M202.9,14.4l0.1,0.2h-2.7l-0.2-0.2H202.9z
		 M200.6,19h2.2l-0.1,0.2h-2.3L200.6,19z M200.7,15.2h2.5l0.1,0.2h-2.4L200.7,15.2z M201,18.2h2l-0.1,0.2h-2.1L201,18.2z
		 M201.1,15.9h2.2v0.2h-2.2L201.1,15.9z M201.2,17.4h2l0,0.2h-2L201.2,17.4z M201.3,16.7h2.1l0,0.2h-2V16.7z"/>
</g>
</svg>
