<svg id="Layer_1" data-name="Layer 1" xmlns="http://www.w3.org/2000/svg" viewBox="0 0 496.16 230.08"><defs><style>.cls-1{fill:#fff;}</style></defs><title>taxi</title><path d="M481.57,395.09c-68.14,0-136.28.14-204.42-.17a101.19,101.19,0,0,1-26-3.84c-12.35-3.39-18.71-11.66-18-24.33a182,182,0,0,1,5.59-35.33c11.09-42.13,22.81-84.1,34.43-126.1,4.82-17.41,13.73-31.66,32.36-36.7A82.33,82.33,0,0,1,326.73,166q154.19-.23,308.38,0a93.72,93.72,0,0,1,18.35,1.6c19.75,4,30.3,17.57,35.49,35.93,5.79,20.48,11,41.12,16.63,61.66,7.25,26.64,15,53.14,21.69,79.92,2.12,8.53,2.2,17.8,1.8,26.66-0.42,9.09-6.1,15.78-14.74,18.3s-17.52,4.65-26.34,4.76c-59,.71-118,0.84-176.93,1.14-9.83,0-19.66,0-29.49,0v-0.87Zm-14.83-148c-6.2,0-12.2.25-18.16-.09-3.81-.21-5.51,1-6.62,4.72-6.56,22.16-13.39,44.24-20.12,66.35-0.71,2.33-1.37,4.69-2.17,7.44h18.19c1.58-5.59,3-11.25,4.87-16.72a5.59,5.59,0,0,1,4-3.05c4.8-.38,9.66.08,14.48-0.21,3.59-.22,5.31.86,6.23,4.53,1.32,5.26,2,12.51,5.58,14.9,3.95,2.63,10.92.71,16.58,0.76a7.84,7.84,0,0,0,1.45-.39Zm65.2,50.48c4.48,8.91,8.42,17,12.59,24.88,0.73,1.38,2.4,3.1,3.72,3.18,5.74,0.35,11.52.15,18.07,0.15-1.21-2.3-2-3.9-2.86-5.43-6-10.38-11.9-20.81-18.1-31.06-1.71-2.83-1.63-4.86,0-7.65,5.93-9.83,11.58-19.84,17.3-29.79,0.79-1.37,1.42-2.82,2.39-4.76-2.55,0-4.42.28-6.16,0-10.37-1.94-16.82,1.72-19.59,12.29-1.29,4.93-4,9.47-6.39,14.82-4.08-8.55-7.66-16.23-11.44-23.81-0.65-1.29-2.09-3-3.25-3.09-5.89-.31-11.8-0.14-18.39-0.14,1.25,2.36,2.06,4,2.93,5.52,5.54,9.87,11,19.79,16.73,29.54,1.67,2.84,1.58,4.93-.08,7.72-6.12,10.3-12,20.76-17.92,31.17-0.78,1.36-1.41,2.8-2.38,4.73,6,0,11.17.29,16.28-.15a7.26,7.26,0,0,0,5.09-3.27C524.45,314.55,527.92,306.47,531.94,297.6ZM379.08,261.92v63.44h18.1V261.79h20.64V247.45H358.18v14.47h20.89ZM582.32,247.4v78.13h17.27V247.4H582.32Z" transform="translate(-233.1 -165.9)"/><path class="cls-1" d="M454.42,260.93l-8.13,31h16.87Z" transform="translate(-233.1 -165.9)"/><path d="M454.42,260.93l8.74,31H446.3Z" transform="translate(-233.1 -165.9)"/></svg>