<svg id="Layer_1" data-name="Layer 1" xmlns="http://www.w3.org/2000/svg" viewBox="0 0 596.57 106.14"><defs><style>.cls-1{fill:#333;}.cls-2{fill:#ca494e;}.cls-3{fill:#353535;}.cls-4{fill:#363636;}.cls-5{fill:#343434;}.cls-6{fill:#393939;}.cls-7{fill:#cb4b50;}.cls-8{fill:#cb494e;}.cls-9{fill:#3b3b3b;}.cls-10{fill:#383838;}.cls-11{fill:#cf575c;}.cls-12{fill:#fefefe;}.cls-13{fill:#db8689;}.cls-14{fill:#db868a;}.cls-15{fill:#d8787d;}.cls-16{fill:#fcfcfc;}</style></defs><title>nepatogi_stats</title><path class="cls-1" d="M151.05,61.86c.18-6.82.27-13.64.58-20.45C152.13,30,157.57,24.85,169,25c4.46,0,9-.68,13.38.82,5,1.72,8.2,5,8.8,10.37,1.1,9.79.61,19.63.7,29.45,0,2.15-.93,4.12-3.43,4s-3.08-2-3.07-4.28c0-6.16,0-12.33,0-18.49,0-1.78.2-3.65-1.8-5.23-1,1.89-.64,3.68-.64,5.34q-.05,24.74,0,49.47a36.32,36.32,0,0,1,0,4c-.34,3.08-1.71,5.76-5.1,5.68s-4.12-3.12-4.15-5.84c-.13-10.33-.07-20.65-.08-31,0-1.17,0-2.33,0-3.5s-.35-1.91-1.67-2c-1.64-.09-1.93.89-1.93,2.2q0,7.25,0,14.49c0,6,0,12,0,18,0,3.27-.63,6.62-4.36,6.63s-5.16-3.18-5.17-6.71c0-8.83,0-17.66,0-26.48,0-1.17,0-2.34,0-3.5-.11-1.78-.91-2.82-2.34-1.05-3.59,4.43-5.39,2.14-6.94-1.63A2.78,2.78,0,0,1,151.05,61.86Z"/><path class="cls-1" d="M29.1,37.74c-.25,7.33-.78,13.42,2.52,19.38,3.76,6.8,6.57,14.11,10,21.09,1.46,2.95,1.65,5.09-2,5.91-3.23.71-3.33,2.33-2.15,5,1.35,3,2.28,6.24,3.45,9.35,1,2.63,1.92,5.4-1.62,6.65-3.23,1.14-5.52-.69-6.74-3.57a84.7,84.7,0,0,1-4-10.75c-.86-3.15-2.49-3.6-5.6-4-6.57-.76-9.74,1.88-11.12,8-.54,2.4-1.82,4.62-2.74,6.93s-2.16,4.53-5.08,3.4A5,5,0,0,1,.91,98.64,76.35,76.35,0,0,1,4.65,88.9c1.09-2.36.81-3.66-1.81-4.42-3.24-.95-3.43-3-1.95-5.75,2.55-4.82,4.57-9.93,7.34-14.61A46.52,46.52,0,0,0,14.39,35a11.73,11.73,0,0,1,1-6.84c2.16-4.08,6.83-5.39,11-2.43,7.74,5.45,15.25,11.24,22.79,17,2.08,1.58,3,3.85,1.22,6.09s-4,2-6.17.33Z"/><path class="cls-1" d="M560.82,100.45c-9.32,0-9.56-.32-8-7.82.53-2.6.62-5.38,1.6-7.8,4-9.78.12-16.77-6.84-23.63-8.66-8.53-8.31-8.88-1.32-18.87,2.85-4.08,5.58-8.25,8.57-12.23,2.2-2.94.82-3.14-1.94-3.73-7.34-1.56-12.87.23-16.48,7.16a23.1,23.1,0,0,1-4.07,5c-1.26,1.31-3,1.71-4.48.47a2.87,2.87,0,0,1-.34-4.09c3.81-5,7.63-10.05,11.68-14.88,1.54-1.83,4-2.25,6.43-2.07,5.14.39,10.29.9,15.44.91,4.84,0,7.12,3.07,9,6.67,1.77,3.33.65,6.31-1.46,9.23-4.18,5.78-8.08,11.77-12.29,17.53-1.54,2.1-2,3.74.19,5.52,9.82,8.06,10.85,18.12,7.14,29.55-1,2.93-3,6.53,2.05,8.85,2.37,1.09.43,3.31-1.36,3.93A9.49,9.49,0,0,1,560.82,100.45Z"/><path class="cls-1" d="M299.47,32.5C295,34,292,36.75,288.59,38.6c-1.39.75-1.36,2.11-1.45,3.47q-.41,6.47-1,12.92c-.17,1.94-.83,3.83-3.12,3.82s-3.11-1.71-3.06-3.76c.11-5.48.16-11,.54-16.45.23-3.37,2.35-5.71,5.24-7.42,4.57-2.69,9.06-5.52,13.61-8.23,6.74-4,14.37.33,14.46,8.29s.13,16,0,24c-.06,2.73.61,4.85,2.78,6.49,12.14,9.23,15.28,23.71,21.25,36.53a4.45,4.45,0,0,1-2.27,6.32c-2.79,1.29-5.05-.26-6.23-2.59a70.66,70.66,0,0,1-5-11.93,44.37,44.37,0,0,0-16.16-23.82c-7.19-5.38-10.12-12-8.84-20.95C299.95,41.26,299.47,37.1,299.47,32.5Z"/><path class="cls-1" d="M426.88,70.45c-16.83,0-15.51,1.42-17-15.3-.4-4.47-1.07-8.91-1.51-13.38-.7-7.21,4.21-11.36,10.77-8.26A44.19,44.19,0,0,0,441.72,38c3.13-.22,5.85,1.21,5.84,4.72s-2.74,4.83-5.87,4.7c-5.42-.24-11,1.11-16.25-1.34-1.33-.62-2.29-.31-2.16,1.43,0,.33.07.66.09,1,.62,10.43.66,11,11.13,10.24,7.89-.58,12.82,2,16.36,8.89,2.18,4.25,5.29,8,8.09,11.94,2.32,3.24,2.48,6.22-1,8.57s-6,.45-8-2.39A111.55,111.55,0,0,1,442.66,75c-2-3.7-4.63-5.22-8.79-4.65A51.89,51.89,0,0,1,426.88,70.45Z"/><path class="cls-1" d="M246.29,90.68c-2.31.46-1.2,5.32-4.76,3.91-3.24-1.29-4.75-3.57-2.56-7.06q9-14.35,17.91-28.74c1.5-2.4,3.41-2.23,6-1.73,4.14.8,6.62,3.62,9.52,6.08,1.86,1.58,3.77,2.28,5-.81.37-.89,1-1.81,2.29-1.12,1.77,1,.41,2.08-.07,2.84-5.23,8.47-10.72,16.79-15.76,25.38-1.67,2.85-2.87.16-4.25.36-2.84-.71-5.58-2.34-8.65-1A28.8,28.8,0,0,0,246.29,90.68Z"/><path class="cls-2" d="M439.26,81.09c5.34,6.82,5.35,7,.85,12.71a30.28,30.28,0,0,1-31.8,10.2c-11.72-3.36-20.17-13.76-21.59-26.59-1.19-10.68,5.33-22.83,15.21-28.3a10,10,0,0,1,1.84-.6c1.2,4.95.38,8.64-3.44,12.53-6.38,6.49-7.15,14.9-3.84,23.24,3.45,8.71,10.35,13.3,19.68,13.65S432.56,94.4,437,86.05C437.82,84.48,438.47,82.82,439.26,81.09Z"/><path class="cls-3" d="M536.59,55.65c2.27.91,3.16,3,4.68,4.54s.17,2.33-.56,3.4c-4.16,6.13-8.89,11.48-16.35,13.8-3.46,1.08-6.72,2.79-10.07,4.21-1.58.67-3.19,1.2-1.89,3.53.69,1.23-.26,2.27-1.21,2.94-1.16.82-2.09.09-3.08-.66-2.93-2.21-4-5.65-5.61-8.64-1-1.85.73-3,2.37-3.62,3.24-1.27,6.43-2.71,9.75-3.71,7.95-2.41,15-6.06,19.65-13.26A20.12,20.12,0,0,1,536.59,55.65Z"/><path class="cls-3" d="M275.14,100.33a9.84,9.84,0,0,1,1.89-5C283.37,85.22,289.58,75,296,65c.54-.85,1-3.89,2.74-2s7.07,2.73,4.79,6.64c-6.66,11.45-13.91,22.56-21,33.76-.89,1.4-2.25,2.57-4.19,1.69A4.93,4.93,0,0,1,275.14,100.33Z"/><path class="cls-4" d="M80.62,97.43c-5.57,1.13-9.65-1.82-12.73-7.79C63,80.25,57.48,71.22,52.23,62a44.26,44.26,0,0,1-2-4,2.92,2.92,0,0,1,1.1-3.92c1.6-1,2.93-.17,3.84,1.13,1.41,2,2.7,4.15,3.93,6.3C63.75,69.76,68.51,77.91,73,86.2c1.83,3.38,3.91,5.5,8.06,4.75a29.47,29.47,0,0,1,5,0c2.45,0,5.31.42,5.33,3.16,0,3.13-3,3.38-5.58,3.37Z"/><path class="cls-3" d="M80.89,74.58c1.38,4.45,2.41,7.77,7.85,7.48,5.84-.31,11,4,13.08,9.7.52,1.43.44,2.55-.81,3.51s-2.8,1.13-4-.2a18.33,18.33,0,0,1-2.59-3.63c-1.22-2.32-2.9-3.08-5.57-3.08A20.09,20.09,0,0,1,69.08,71.7c-.59-3.2,1.63-5.46,5.06-4.66C78.81,68.11,83.39,69.59,88,71c1.56.47,2.73,1.47,2.21,3.29s-1.87,2.09-3.56,1.64S83.2,75.11,80.89,74.58Z"/><path class="cls-5" d="M172,3a9.63,9.63,0,0,1,9.36,9.18,9.28,9.28,0,1,1-18.55.18A9.65,9.65,0,0,1,172,3Z"/><path class="cls-3" d="M317.8,9.43c-.18,4.73-5.09,9.25-9.67,8.9s-8.85-5-8.68-9.39c.18-4.73,5.09-9.25,9.67-8.9S318,5,317.8,9.43Z"/><path class="cls-3" d="M575.38,18.36c-4.73-.18-9.25-5.09-8.9-9.67s5-8.85,9.39-8.68c4.73.18,9.25,5.09,8.9,9.67S579.8,18.53,575.38,18.36Z"/><path class="cls-3" d="M32.8,12.43c-.18,4.73-5.09,9.25-9.67,8.9s-8.85-5-8.68-9.39c.18-4.73,5.09-9.25,9.67-8.9S33,8,32.8,12.43Z"/><path class="cls-4" d="M420.81,20.81c-.09,4.31-4.55,8.64-8.81,8.55s-8.64-4.55-8.55-8.81S408,11.91,412.25,12,420.89,16.54,420.81,20.81Z"/><path class="cls-6" d="M573.84,31.44c3.86,10.07,10.91,11.67,19.27,10.5a2.82,2.82,0,0,1,3.45,2.73,3.2,3.2,0,0,1-3.17,3.71c-4.8.14-9.65.45-14.39-.1-4.4-.51-6.19-4.87-8.26-8.05C568.87,37.36,573,35.67,573.84,31.44Z"/><path class="cls-7" d="M259.61,89.76c.47,1.58.82,3.2,1.42,4.73,1.34,3.42.32,6.29-2.19,8.57a7.16,7.16,0,0,1-8.77,1.15A7.6,7.6,0,0,1,245.79,96a47.15,47.15,0,0,1,1.32-5.29,10.74,10.74,0,0,1,4.55-2.5C254.65,87,257,89,259.61,89.76Z"/><path class="cls-8" d="M151.05,61.86q0,2,0,3.92c-2.09,1.23-1.19,3.29-1.2,5-.09,10.33,0,20.66-.09,31,0,1.25,1,3.38-1.44,3.54-2.94.19-1.83-2.26-1.84-3.61q-.14-16,0-32C146.49,66.3,146.88,62.91,151.05,61.86Z"/><path class="cls-9" d="M317,42c4.5,3.62,8.8,6.91,12.88,10.45,1.66,1.43,2.7,3.47,1.06,5.69-1.82,2.47-3.73,1.2-5.58,0a18,18,0,0,0-2-1.5C317.36,53.77,315,49.22,317,42Z"/><path class="cls-10" d="M68.81,51.93c3.44.82,5.73,2.79,6,6.35.2,3-3.71,6.55-6.61,6-3.42-.65-5.85-2.87-5.6-6.44S65.34,52.44,68.81,51.93Z"/><path class="cls-11" d="M89.65,102c-.18,1.85-1.24,3.11-3.09,3.11a2.82,2.82,0,0,1-2.9-2.8,2.87,2.87,0,0,1,3-3.15C88.31,99.19,89.31,100.38,89.65,102Z"/><path class="cls-11" d="M79.65,102c-.18,1.85-1.24,3.11-3.09,3.11a2.82,2.82,0,0,1-2.9-2.8,2.87,2.87,0,0,1,3-3.15C78.31,99.19,79.31,100.38,79.65,102Z"/><path class="cls-12" d="M259.61,89.76c-2.88.28-5.46-1.83-8.41-1-1,.62-1.11,0-1.05-.82,3.6-1.51,6.87-1.39,9.51,1.9Z"/><path class="cls-13" d="M565.79,103.76c-.2.89-.71,1.57-1.63,1.55a1.58,1.58,0,0,1-1.66-2,1.55,1.55,0,0,1,1.82-1.31A1.71,1.71,0,0,1,565.79,103.76Z"/><path class="cls-13" d="M560.79,103.57a1.7,1.7,0,0,1-1.45,1.73,1.55,1.55,0,0,1-1.83-1.29,1.58,1.58,0,0,1,1.63-2C560.07,102,560.57,102.7,560.79,103.57Z"/><path class="cls-13" d="M555.81,103.67c-.17,1-.7,1.63-1.61,1.64a1.56,1.56,0,0,1-1.69-1.92,1.54,1.54,0,0,1,1.78-1.35A1.75,1.75,0,0,1,555.81,103.67Z"/><path class="cls-14" d="M498.95,80a1.72,1.72,0,0,1,1.8,1.45,1.54,1.54,0,0,1-1.29,1.83,1.58,1.58,0,0,1-2-1.63C497.44,80.73,498.16,80.26,498.95,80Z"/><path class="cls-15" d="M504.07,85.82A1.79,1.79,0,0,1,502,87.25a1.48,1.48,0,0,1-1.42-1.64,1.57,1.57,0,0,1,2-1.49A1.66,1.66,0,0,1,504.07,85.82Z"/><path class="cls-15" d="M506.75,89.36c0,1.09-.49,1.88-1.67,1.9a1.48,1.48,0,0,1-1.54-1.53c0-1,.41-1.94,1.62-2C506.17,87.72,506.4,88.61,506.75,89.36Z"/><path class="cls-12" d="M250.15,87.9l1.05.82a8.23,8.23,0,0,1-4.1,2h-.82C246.71,88.55,248.6,88.47,250.15,87.9Z"/><path class="cls-16" d="M159.91,64.86a40.46,40.46,0,0,1,0-22.47Z"/></svg>